<?xml version="1.0" encoding="UTF-8"?>
<svg xmlns="http://www.w3.org/2000/svg" xmlns:xlink="http://www.w3.org/1999/xlink"
     width="640" height="512" viewBox="-320.0 -256.0 640 512">
<defs>
<marker markerWidth="4.0" markerHeight="4.04" viewBox="-0.1 -0.51 1.0 1.01" orient="auto" stroke-opacity="1" id="d0">
<path d="M-0.1,0.5 L-0.1,-0.5 L0.9,0 Z" fill="orange" stroke-opacity="1" />
</marker>
<marker markerWidth="4.0" markerHeight="4.04" viewBox="-0.1 -0.51 1.0 1.01" orient="auto" stroke-opacity="1" id="d1">
<path d="M-0.1,0.5 L-0.1,-0.5 L0.9,0 Z" fill="orange" stroke-opacity="1" />
</marker>
</defs>
<rect x="-170" y="-256" width="340" height="512" rx="40" ry="40" stroke="black" stroke-width="1" fill="black" fill-opacity="0.8" />
<rect x="-130" y="-216" width="260" height="130" rx="40" ry="40" stroke="white" stroke-width="10" fill="white" fill-opacity="0.3" />
<circle cx="0" cy="-150" r="40" stroke="hsl(204, 86%, 53%)" stroke-width="20" fill="white" fill-opacity="1" />
<circle cx="0" cy="90" r="130" stroke="hsl(204, 86%, 53%)" stroke-width="40" fill="white" fill-opacity="1" />
<circle cx="0" cy="90" r="20" stroke="hsl(204, 86%, 53%)" stroke-width="40" fill="white" fill-opacity="1" />
<circle cx="0" cy="90" r="150" stroke="white" stroke-width="35" fill="none" fill-opacity="1" />
<path d="M-120,110 L-85,250 L-50,110 L-15,250 L20,110 L55,250 L107.5,75.0" stroke="orange" fill="none" fill-opacity="1" stroke-width="20" stroke-opacity="0.85" marker-end="url(#d0)" />
<path d="M-120,110 L-85,250 L-50,110 L-15,250 L20,110 L55,250 L107.5,75.0" stroke="orange" fill="none" fill-opacity="1" stroke-width="20" stroke-opacity="1" marker-end="url(#d1)" />
</svg>
